<svg xmlns="http://www.w3.org/2000/svg" width="42.002" height="42" viewBox="0 0 42.002 42">
  <g id="Outline" transform="translate(-1.997 -2.001)">
    <g id="Group_17" data-name="Group 17" transform="translate(1.997 2.001)">
      <path id="Path_45" data-name="Path 45" d="M32.691,43.173a28.319,28.319,0,0,0,6.137-4.842.7.7,0,1,0-1.005-.975,26.9,26.9,0,0,1-5.832,4.605c-.265.153-.534.3-.8.448a20.43,20.43,0,0,0,1.345-4.871,79.589,79.589,0,0,0,9.8-7.293.7.7,0,1,0-.919-1.056,78.6,78.6,0,0,1-8.692,6.552c.029-.463.049-.93.049-1.4a.7.7,0,0,0-.7-.7h-.825q.066-.825.094-1.645c1.031-.511,2.092-1.012,3.168-1.486a.7.7,0,1,0-.564-1.281c-.876.386-1.737.791-2.587,1.2-.014-.551-.048-1.112-.118-1.68a.7.7,0,1,0-1.39.172,15.805,15.805,0,0,1,.122,1.918c0,.922-.05,1.861-.128,2.8H26.472a.7.7,0,1,0,0,1.4H31.36c-.288,8.554-5.824,15.4-12.588,15.4A10.587,10.587,0,0,1,12.361,48.2a.7.7,0,1,0-.846,1.116,11.97,11.97,0,0,0,7.256,2.528c4.669,0,8.809-2.875,11.354-7.28C30.983,44.127,31.845,43.662,32.691,43.173Z" transform="translate(-4.769 -9.842)" fill="#92553d"/>
      <path id="Path_46" data-name="Path 46" d="M44.17,17.261a38.125,38.125,0,0,0-15.448-2.59l.86-.86,5.193-.472a.7.7,0,1,0-.126-1.394l-3.52.32L36.691,6.7a.7.7,0,1,0-.99-.99l-5.562,5.563.32-3.52a.7.7,0,0,0-1.394-.126l-.473,5.192-1.534,1.534a28.809,28.809,0,0,0-1.686-3.01l.14-2.627a.7.7,0,0,0-1.4-.074l-.043.813q-.415-.56-.834-1.086a3.669,3.669,0,0,1,2.214-2.7c.121-.048.243-.1.364-.14l.829,1.944A.7.7,0,0,0,27.978,7.3L28,7.183a3.7,3.7,0,0,1,2.4-2.94l.693,1.732a.7.7,0,0,0,.594.438.69.69,0,0,0,.657-.337,5.427,5.427,0,0,1,4.47-2.645c.939-.036,1.691-.027,2.178-.013.011.3.011.7.011,1.192a5.512,5.512,0,0,1-2.649,4.649l-.514.309a.7.7,0,0,0,.1,1.25l2.31.923a3.71,3.71,0,0,1-.809,1.446.7.7,0,1,0,1.04.938A5.1,5.1,0,0,0,39.7,11.67l.044-.236a.7.7,0,0,0-.428-.776l-1.6-.641a6.938,6.938,0,0,0,2.684-5.4c.013-1.19-.038-1.9-.04-1.932a.7.7,0,0,0-.648-.648c-.047,0-1.168-.081-2.952-.016a6.813,6.813,0,0,0-4.834,2.261L31.469,3.14a.7.7,0,0,0-.783-.427,5.1,5.1,0,0,0-3.477,2.512l-.366-.859a.7.7,0,0,0-.876-.386q-.515.182-1.031.386A5.031,5.031,0,0,0,22.17,7.1a38.717,38.717,0,0,0-5.142-4.948.7.7,0,0,0-.85,0C15.678,2.524,4,11.575,4,23c0,.155,0,.307.01.459l.008.257a.7.7,0,0,0,.7.685h.015a.7.7,0,0,0,.685-.715L5.41,23.41c0-.135-.01-.269-.01-.409,0-6.248,3.9-11.884,7.186-15.521-.54.975-1.092,2.057-1.616,3.249a.7.7,0,1,0,1.282.56,38.856,38.856,0,0,1,2.755-5.148A80.865,80.865,0,0,0,13.158,20.18a.7.7,0,0,0,.671.727h.029a.7.7,0,0,0,.7-.672A79.413,79.413,0,0,1,16.6,5.453c.4,1.667.9,4.069,1.317,6.947a.7.7,0,1,0,1.385-.2C18.84,9,18.28,6.41,17.864,4.709c2.608,2.39,7.5,7.517,9.27,13.727a.7.7,0,1,0,1.347-.383c-.183-.645-.4-1.275-.639-1.89a31.815,31.815,0,0,1,9.894.658,38.264,38.264,0,0,0-6.6.685.7.7,0,1,0,.268,1.373,37.843,37.843,0,0,1,8.7-.624c-1.506.474-3.4,1.12-5.556,1.978a.7.7,0,1,0,.517,1.3,75.883,75.883,0,0,1,7.657-2.59,38.741,38.741,0,0,1-4.825,8.009.7.7,0,1,0,1.1.866,39.045,39.045,0,0,0,2.775-4.034c-1.506,4.655-4.437,10.85-9.846,13.973A33.133,33.133,0,0,1,27,40.091a.7.7,0,1,0,.49,1.311,34.516,34.516,0,0,0,5.132-2.432C42.514,33.257,44.513,18.618,44.594,18A.7.7,0,0,0,44.17,17.261Z" transform="translate(-2.598 -2.001)" fill="#92553d"/>
      <path id="Path_47" data-name="Path 47" d="M31.29,26.727a.7.7,0,0,0,.7-.7,31.116,31.116,0,0,0-3.36-13.543.7.7,0,1,0-1.26.61,29.728,29.728,0,0,1,3.22,12.933.7.7,0,0,0,.7.7Z" transform="translate(-9.587 -5.027)" fill="#92553d"/>
      <path id="Path_48" data-name="Path 48" d="M11.4,28.8a26.563,26.563,0,0,1,.868-6.6.7.7,0,1,0-1.356-.35A27.954,27.954,0,0,0,10,28.8a.7.7,0,1,0,1.4,0Z" transform="translate(-4.398 -7.798)" fill="#92553d"/>
      <path id="Path_49" data-name="Path 49" d="M3.411,32.3H20.9a.7.7,0,0,0,0-1.4H19.471c.017-.917.029-1.848.029-2.8a75.024,75.024,0,0,0-.5-8.48.7.7,0,0,0-1.392.16A73.5,73.5,0,0,1,18.1,28.1c0,.952-.011,1.883-.029,2.8H13.928c-.018-.917-.029-1.848-.029-2.8a.7.7,0,1,0-1.4,0c0,.952.011,1.883.029,2.8H2.7a.7.7,0,0,0-.7.7A19.758,19.758,0,0,0,6.593,44.565a.7.7,0,0,0,1.05-.925A18.2,18.2,0,0,1,3.411,32.3Z" transform="translate(-1.997 -7.1)" fill="#92553d"/>
      <circle id="Ellipse_2" data-name="Ellipse 2" cx="0.7" cy="0.7" r="0.7" transform="translate(20.303 31.5)" fill="#92553d"/>
      <circle id="Ellipse_3" data-name="Ellipse 3" cx="0.7" cy="0.7" r="0.7" transform="translate(11.202 37.1)" fill="#92553d"/>
      <circle id="Ellipse_4" data-name="Ellipse 4" cx="0.7" cy="0.7" r="0.7" transform="translate(7.002 33.6)" fill="#92553d"/>
      <circle id="Ellipse_5" data-name="Ellipse 5" cx="0.7" cy="0.7" r="0.7" transform="translate(14.003 26.6)" fill="#92553d"/>
      <circle id="Ellipse_6" data-name="Ellipse 6" cx="0.7" cy="0.7" r="0.7" transform="translate(7.702 29.4)" fill="#92553d"/>
      <circle id="Ellipse_7" data-name="Ellipse 7" cx="0.7" cy="0.7" r="0.7" transform="translate(3.502 28)" fill="#92553d"/>
      <circle id="Ellipse_8" data-name="Ellipse 8" cx="0.7" cy="0.7" r="0.7" transform="translate(16.103 33.6)" fill="#92553d"/>
      <circle id="Ellipse_9" data-name="Ellipse 9" cx="0.7" cy="0.7" r="0.7" transform="translate(21.703 28)" fill="#92553d"/>
    </g>
  </g>
</svg>
