<svg xmlns="http://www.w3.org/2000/svg" width="44.241" height="42" viewBox="0 0 44.241 42">
  <g id="berries" transform="translate(0 -12.966)">
    <g id="Group_12" data-name="Group 12" transform="translate(0 12.966)">
      <g id="Group_11" data-name="Group 11">
        <path id="Path_42" data-name="Path 42" d="M34.516,30.727c-.118,0-.239,0-.361.007a9.743,9.743,0,0,0-4.219-2.553c.365-3.813-1.322-7.461-2.991-10.05a.661.661,0,0,0-1.111.718c1.525,2.364,3.066,5.657,2.8,9.042a9.691,9.691,0,0,0-5.58.805V27.512l3.18-3.18a.68.68,0,0,0,.034-.94.662.662,0,0,0-.95-.015l-2.264,2.264V22.1a.68.68,0,0,0-.641-.689.661.661,0,0,0-.682.661v3.571l-2.264-2.264a.661.661,0,0,0-.935.935l3.2,3.2v1.937a9.8,9.8,0,0,0-2.912,3.083,11.352,11.352,0,0,0-2.525-7l-.049-.058c.76-5.047,4.79-9.53,6.149-10.918.353.359.885.925,1.489,1.651a.661.661,0,0,0,.919.094h0a.662.662,0,0,0,.1-.943,24.894,24.894,0,0,0-2.057-2.217.661.661,0,0,0-.9,0c-.237.218-5.466,5.088-6.828,11.17a17.8,17.8,0,0,0-8.561-3.874,27.987,27.987,0,0,0-5.916-.522.661.661,0,0,0-.633.633A28,28,0,0,0,.53,26.463c.838,4.314,2.6,7.681,5.094,9.737a10.8,10.8,0,0,0,.932.686,26.718,26.718,0,0,0-6.5,8.628.661.661,0,0,0,.283.849,26.1,26.1,0,0,0,11.182,3.02,14.9,14.9,0,0,0,2.426-.193,9.723,9.723,0,0,0,17.53.5,9.746,9.746,0,0,0,7.877-.805.662.662,0,0,0-.671-1.14,8.412,8.412,0,0,1-6.678.724A9.723,9.723,0,0,0,27.1,36.5a8.367,8.367,0,0,1,6.829-4.43c.2-.013.4-.02.588-.02a8.4,8.4,0,0,1,6.618,13.579.663.663,0,0,0,.072.9h0a.663.663,0,0,0,.969-.085,9.726,9.726,0,0,0-7.66-15.718ZM6.469,35.183c-2.843-2.342-4.09-6.155-4.634-8.941a28.271,28.271,0,0,1-.51-5.012,28.21,28.21,0,0,1,4.98.5c5.064.984,7.673,3.065,8.969,4.637,2.025,2.456,2.674,5.752,1.938,9.81L15.19,34.16V28.284a.661.661,0,0,0-1.323,0v4.553l-2.912-2.912V25.4a.661.661,0,1,0-1.323,0v3.2L7.107,26.077a.661.661,0,0,0-.935.935L8.7,29.538h-3.2a.661.661,0,1,0,0,1.323H10.02l2.912,2.912H8.378a.661.661,0,1,0,0,1.323h5.876l2.022,2.022C12.22,37.854,8.925,37.205,6.469,35.183ZM11.4,41.5,7.424,39.517A.661.661,0,0,0,6.833,40.7l2.794,1.4-4.57,1.525a.661.661,0,1,0,.419,1.255l4.676-1.56L8.685,46.251a.661.661,0,1,0,1.183.591l2.058-4.119,1.685-.562a9.739,9.739,0,0,0-.123,5.763c-4.93.708-10.239-1.6-11.944-2.433a25.008,25.008,0,0,1,6.252-7.9,12.3,12.3,0,0,0,5.393,1.148,17.976,17.976,0,0,0,2.61-.2,9.78,9.78,0,0,0-1.465,1.99ZM31.239,45.24a8.4,8.4,0,1,1-8.4-8.4A8.412,8.412,0,0,1,31.239,45.24ZM25.868,36a9.723,9.723,0,0,0-7.02.371,8.4,8.4,0,0,1,13.584-5.42A9.684,9.684,0,0,0,25.868,36Z" transform="translate(0 -12.966)" fill="#92553d"/>
      </g>
    </g>
    <g id="Group_14" data-name="Group 14" transform="translate(22.299 42.557)">
      <g id="Group_13" data-name="Group 13">
        <path id="Path_43" data-name="Path 43" d="M261.133,355.422a3.065,3.065,0,1,0,3.065,3.065A3.069,3.069,0,0,0,261.133,355.422Zm0,4.807a1.742,1.742,0,1,1,1.742-1.742A1.744,1.744,0,0,1,261.133,360.229Z" transform="translate(-258.068 -355.422)" fill="#92553d"/>
      </g>
    </g>
    <g id="Group_16" data-name="Group 16" transform="translate(30.863 33.331)">
      <g id="Group_15" data-name="Group 15">
        <path id="Path_44" data-name="Path 44" d="M360.65,248.657c-1.982,0-3.477.9-3.477,2.1s1.495,2.1,3.477,2.1,3.477-.9,3.477-2.1S362.632,248.657,360.65,248.657Zm1.69,2.527a4.27,4.27,0,0,1-3.38,0c-.34-.174-.464-.351-.464-.427s.124-.254.464-.427a4.27,4.27,0,0,1,3.38,0c.34.174.464.351.464.427S362.681,251.01,362.34,251.184Z" transform="translate(-357.173 -248.657)" fill="#92553d"/>
      </g>
    </g>
  </g>
</svg>
