<svg xmlns="http://www.w3.org/2000/svg" width="41.994" height="42" viewBox="0 0 41.994 42">
  <path id="sunflower-seed_1_" data-name="sunflower-seed(1)" d="M41.135,5.092s-.007-.01-.012-.015-.01-.007-.015-.011a2.1,2.1,0,0,0-1.225-.589c-3-.35-10.654-.84-17.8,1.86A44.7,44.7,0,0,0,16,.454a2.091,2.091,0,0,0-2.6,0C10.254,2.94,0,11.969,0,23.645,0,33.766,6.595,42,14.7,42a12.894,12.894,0,0,0,8.984-3.842A21.108,21.108,0,0,0,34.795,32.19c8.247-8.247,7.388-21.889,6.924-25.876A2.1,2.1,0,0,0,41.135,5.092Zm-3.1.619a53.075,53.075,0,0,0-11.879,6.416A35.311,35.311,0,0,0,23.02,7.482,37.916,37.916,0,0,1,38.032,5.712Zm1.51.946A51.815,51.815,0,0,1,29.4,23.639a22.969,22.969,0,0,0-2.59-10.266A51.648,51.648,0,0,1,39.542,6.658ZM1.4,23.645c0-9.76,7.682-17.649,11.555-21A52.513,52.513,0,0,0,8.4,23.8c0,6.485,1.194,13.264,3.451,16.4C5.88,38.535,1.4,31.747,1.4,23.645ZM14.7,40.6c-2.318,0-4.9-6.9-4.9-16.8A51.6,51.6,0,0,1,14.7,2.24,51.6,51.6,0,0,1,19.6,23.8C19.6,33.7,17.017,40.6,14.7,40.6Zm2.849-.4C19.805,37.063,21,30.284,21,23.8A52.517,52.517,0,0,0,16.445,2.641C20.319,6,28,13.886,28,23.645,28,31.747,23.52,38.535,17.549,40.2Zm16.256-9a20.214,20.214,0,0,1-8.5,5.134A20.469,20.469,0,0,0,29.294,25.8,52.6,52.6,0,0,0,40.487,8.18C40.85,13.3,40.7,24.309,33.805,31.2Z" transform="translate(0 0.001)" fill="#92553d"/>
</svg>
